<svg width="24" height="18" viewBox="0 0 24 18" fill="none" xmlns="http://www.w3.org/2000/svg">
<path fill-rule="evenodd" clip-rule="evenodd" d="M7.0149 0.00130681L7.55676 0.00200225C7.64938 0.00213307 7.74305 0.00227085 7.83756 0.00241486L8.41344 0.00334765C9.677 0.00550479 11.0229 0.00846316 12.0486 0.0105953L12.4979 0.0115147C12.5685 0.0116562 12.6368 0.0117913 12.7027 0.0119193C15.2948 -0.170106 17.6347 1.75383 17.8432 4.33559C17.8451 4.36207 17.8468 4.51234 17.8482 4.78569L20.2397 2.8272C20.9355 2.25693 21.8721 2.14518 22.6843 2.52882C23.4965 2.91476 24.0011 3.71198 24 4.61058L23.9862 13.077C23.985 13.9757 23.4793 14.7729 22.6682 15.1554C22.3503 15.3063 22.0138 15.3789 21.6798 15.3789C21.1602 15.3789 20.6475 15.2003 20.2247 14.8535L17.8536 12.8861C17.8536 12.9194 17.8536 12.9528 17.8535 12.9864C17.9019 14.203 17.4688 15.3746 16.6324 16.2847C15.7533 17.2421 14.5414 17.7985 13.2211 17.8527C13.1987 17.8543 13.0725 17.8554 12.8655 17.856L12.4103 17.8568C12.2328 17.857 12.0311 17.857 11.8101 17.8569L10.8356 17.8559C10.7478 17.8558 10.6586 17.8557 10.5681 17.8556L10.0124 17.8547C8.68823 17.8524 7.19666 17.849 6.04028 17.8465L5.56667 17.8455C5.41662 17.8451 5.27488 17.8449 5.1429 17.8446C5.02079 17.8538 4.89867 17.8584 4.77655 17.8584C2.3411 17.8596 0.21671 15.9932 0.0162521 13.5451L0.0160726 13.5426L0.0149963 13.5198C0.0149157 13.5173 0.0148334 13.5146 0.0147497 13.5115L0.0139586 13.4753C0.0138669 13.4701 0.013774 13.4646 0.01368 13.4586L0.0128083 13.3915C0.0127089 13.3824 0.0126087 13.3729 0.0125079 13.3627L0.0115862 13.2538C0.0114826 13.2396 0.0113786 13.2248 0.0112743 13.2092L0.0106473 13.1063C0.0105427 13.0875 0.010438 13.068 0.0103335 13.0475L0.0093984 12.839C0.00929546 12.813 0.00919295 12.786 0.00909097 12.758L0.00819045 12.4774C0.00809263 12.443 0.00799567 12.4074 0.00789966 12.3706L0.00706442 12.007C0.00697514 11.9628 0.00688713 11.9174 0.00680051 11.8706L0.00583449 11.2435C0.00576068 11.1855 0.00568867 11.126 0.00561859 11.0651L0.00472468 10.032C0.00467646 9.95495 0.0046307 9.87615 0.0045875 9.79562L0.00457107 5.28194C0.00462046 5.14505 0.0046739 5.00587 0.00473151 4.86438C-0.0505672 3.67661 0.380302 2.49691 1.2213 1.57872C2.09917 0.620205 3.30998 0.0614578 4.63139 0.00500699C4.64918 0.00372693 4.73338 0.00275977 4.87227 0.0020581L5.12014 0.0011988C5.1678 0.0010868 5.21851 0.000989902 5.27209 0.00090738L6.75605 0.00103287C6.84081 0.00111524 6.92715 0.0012068 7.0149 0.00130681ZM12.7649 1.7377C11.3104 1.73559 9.53187 1.73305 8.01413 1.73139L7.21565 1.73058C7.08806 1.73046 6.96349 1.73035 6.8424 1.73025L4.83889 1.73032C4.76349 1.73066 4.71472 1.73117 4.69591 1.73194C3.84569 1.76765 3.06114 2.12825 2.49548 2.74575C1.96784 3.32293 1.69595 4.06025 1.73166 4.82521L1.73262 9.27556C1.73267 9.37381 1.73272 9.47137 1.73278 9.56814L1.73383 10.9437C1.73392 11.0293 1.734 11.1135 1.7341 11.1961L1.73469 11.672C1.7348 11.7479 1.73491 11.8219 1.73502 11.894L1.73614 12.4873C1.73737 13.0214 1.73892 13.3678 1.74088 13.4345C1.87222 15.0301 3.36758 16.2502 5.07954 16.1188C5.26058 16.1191 5.4466 16.1194 5.63648 16.1197L6.21658 16.1206C6.70778 16.1214 7.21613 16.1223 7.72412 16.1231L8.33243 16.1241C8.63538 16.1246 8.93568 16.1251 9.22956 16.1256L9.80764 16.1264C9.90219 16.1266 9.99574 16.1267 10.0882 16.1268L10.628 16.1275C10.7153 16.1277 10.8012 16.1278 10.8856 16.1278L12.9194 16.1278C13.0525 16.1273 13.1361 16.1267 13.1612 16.1257C14.008 16.0912 14.7937 15.7317 15.3593 15.1154C15.8881 14.5405 16.16 13.8032 16.1266 13.0417L16.1256 13.0227L16.1254 7.4511C16.1253 7.36061 16.1253 7.27129 16.1252 7.18327L16.1244 6.19729C16.1243 6.12167 16.1242 6.04784 16.1241 5.97595L16.1231 5.3845C16.1227 5.20702 16.1223 5.05034 16.1219 4.9179L16.1209 4.68636C16.1202 4.5549 16.1194 4.4706 16.1185 4.44158C15.9884 2.83791 14.4861 1.60291 12.7649 1.7377ZM21.3341 4.16474L17.8531 7.00489C17.8532 7.14644 17.8534 7.29358 17.8535 7.44631L17.8542 10.3353L21.3203 13.5183C21.5749 13.7257 21.8307 13.6404 21.9297 13.592C22.0288 13.5459 22.2581 13.4019 22.2581 13.0747L22.2719 4.60828C22.2731 4.2811 22.0427 4.13709 21.9436 4.08985C21.8456 4.04377 21.5864 3.95737 21.3341 4.16474Z" fill="white"/>
</svg>
