<svg width="24" height="24" viewBox="0 0 24 24" fill="none" xmlns="http://www.w3.org/2000/svg">
<path fill-rule="evenodd" clip-rule="evenodd" d="M12.0019 0C15.21 0 18.2248 1.24726 20.4893 3.51289C25.1702 8.19376 25.1702 15.8091 20.4893 20.49C18.1947 22.7857 15.105 24.0006 11.9751 24.0006C10.2689 24.0006 8.55156 23.64 6.94475 22.8963C6.4713 22.7065 6.028 22.5278 5.70977 22.5278C5.34351 22.53 4.85109 22.6998 4.37541 22.8639C3.39948 23.1989 2.1846 23.6165 1.28572 22.721C0.390189 21.8243 0.803338 20.6128 1.13609 19.638C1.30023 19.1578 1.46884 18.6621 1.46884 18.2869C1.46884 17.9787 1.32033 17.5856 1.09254 17.0195C-0.998887 12.5028 -0.0318938 7.05927 3.51561 3.514C5.78011 1.24838 8.79387 0 12.0019 0ZM12.003 1.67493C9.24164 1.67493 6.64773 2.74912 4.69922 4.69874C1.64639 7.74934 0.815621 12.4336 2.63013 16.3562C2.89142 17.0028 3.14377 17.6325 3.14377 18.2869C3.14377 18.9401 2.91933 19.5978 2.72169 20.1784C2.55866 20.6564 2.31189 21.3777 2.47045 21.5362C2.62566 21.697 3.35146 21.4436 3.83049 21.2794C4.40555 21.0829 5.05766 20.8573 5.70418 20.8529C6.35182 20.8529 6.96261 21.0985 7.60914 21.3587C11.5698 23.19 16.254 22.357 19.3057 19.3064C23.3323 15.2776 23.3323 8.72415 19.3057 4.69762C17.3561 2.748 14.7633 1.67493 12.003 1.67493ZM16.4102 11.3479C17.0266 11.3479 17.5268 11.847 17.5268 12.4645C17.5268 13.082 17.0266 13.5811 16.4102 13.5811C15.7938 13.5811 15.2891 13.082 15.2891 12.4645C15.2891 11.847 15.7838 11.3479 16.4002 11.3479H16.4102ZM11.9339 11.3479C12.5503 11.3479 13.0505 11.847 13.0505 12.4645C13.0505 13.082 12.5503 13.5811 11.9339 13.5811C11.3175 13.5811 10.8128 13.082 10.8128 12.4645C10.8128 11.847 11.3064 11.3479 11.9239 11.3479H11.9339ZM7.45716 11.3479C8.07354 11.3479 8.57378 11.847 8.57378 12.4645C8.57378 13.082 8.07354 13.5811 7.45716 13.5811C6.84079 13.5811 6.33608 13.082 6.33608 12.4645C6.33608 11.847 6.83074 11.3479 7.44711 11.3479H7.45716Z" fill="white"/>
</svg>
