<svg width="24" height="23" viewBox="0 0 24 23" fill="none" xmlns="http://www.w3.org/2000/svg">
<path d="M7.53594 0.000185596C8.29193 0.023177 9.02392 0.155176 9.73312 0.396373H9.80392C9.85192 0.419173 9.88792 0.444373 9.91192 0.467172C10.1771 0.552371 10.4279 0.64837 10.6679 0.780369L11.1239 0.984367C11.3039 1.08037 11.5199 1.25916 11.6399 1.33236C11.7599 1.40316 11.8919 1.47636 11.9999 1.55916C13.3331 0.540371 14.9519 -0.0116227 16.6198 0.000185596C17.377 0.000185596 18.133 0.107176 18.8518 0.348374C23.281 1.78836 24.877 6.64831 23.5438 10.8963C22.7878 13.067 21.5518 15.0482 19.933 16.667C17.6158 18.911 15.0731 20.903 12.3359 22.6189L12.0359 22.8001L11.7239 22.6069C8.97713 20.903 6.41995 18.911 4.08118 16.655C2.47319 15.0362 1.23601 13.067 0.468015 10.8963C-0.887971 6.64831 0.708013 1.78836 5.18517 0.323174C5.53316 0.203175 5.89196 0.119176 6.25195 0.0723764H6.39595C6.73315 0.023177 7.06795 0.000185596 7.40394 0.000185596H7.53594ZM18.2278 3.79234C17.7358 3.62314 17.1958 3.88834 17.0158 4.39233C16.8478 4.89633 17.1118 5.44832 17.6158 5.62712C18.385 5.91512 18.8998 6.67231 18.8998 7.5111V7.5483C18.877 7.82309 18.9598 8.08829 19.1278 8.29229C19.2958 8.49629 19.5478 8.61509 19.8118 8.64029C20.3038 8.62709 20.7238 8.23229 20.7598 7.7271V7.5843C20.7958 5.90311 19.777 4.38033 18.2278 3.79234Z" fill="#ED2538"/>
</svg>
