<svg width="24" height="26" viewBox="0 0 24 26" fill="none" xmlns="http://www.w3.org/2000/svg">
<path d="M8.38077 23.7137V19.8513C8.38077 18.8653 9.1859 18.0661 10.1791 18.0661H13.8096C14.2866 18.0661 14.744 18.2542 15.0812 18.589C15.4185 18.9237 15.6079 19.3778 15.6079 19.8513V23.7137C15.6049 24.1236 15.7668 24.5177 16.0577 24.8086C16.3486 25.0996 16.7445 25.2632 17.1574 25.2632H19.6343C20.7911 25.2661 21.9016 24.812 22.7206 24.001C23.5397 23.19 24 22.0888 24 20.9404V9.93708C24 9.00942 23.5858 8.12948 22.869 7.53432L14.443 0.853729C12.9773 -0.317606 10.8772 -0.279787 9.45523 0.943552L1.22149 7.53432C0.47083 8.11194 0.0221713 8.99449 0 9.93708V20.9292C0 23.3228 1.95459 25.2632 4.36569 25.2632H6.78605C7.64365 25.2632 8.34063 24.5763 8.34684 23.7249L8.38077 23.7137Z" fill="#0B6CFF"/>
</svg>
