<svg width="24" height="22" viewBox="0 0 24 22" fill="none" xmlns="http://www.w3.org/2000/svg">
<path fill-rule="evenodd" clip-rule="evenodd" d="M17.4798 0C21.197 0 24 3.0096 24 7.00062V14.6082C24 16.6508 23.2722 18.4962 21.9494 19.8055C20.7628 20.9786 19.2234 21.6 17.4977 21.6H6.49898C4.77656 21.6 3.23833 20.9797 2.0506 19.8055C0.727814 18.4962 0 16.6508 0 14.6082V7.00062C0 3.0096 2.80298 0 6.52019 0H17.4798ZM17.4798 1.66154H6.52019C3.71274 1.66154 1.67442 3.90683 1.67442 7.00062V14.6082C1.67442 16.2066 2.22809 17.6345 3.23274 18.6281C4.09898 19.4865 5.22977 19.9385 6.50233 19.9385H17.4798C17.482 19.9362 17.491 19.9385 17.4977 19.9385C18.7714 19.9385 19.901 19.4865 20.7673 18.6281C21.773 17.6345 22.3256 16.2066 22.3256 14.6082V7.00062C22.3256 3.90683 20.2873 1.66154 17.4798 1.66154ZM19.2391 6.78883C19.5304 7.14439 19.4757 7.66723 19.1174 7.95744L14.1567 11.9584C13.5293 12.4525 12.7792 12.6995 12.0301 12.6995C11.2833 12.6995 10.5388 12.4547 9.91591 11.9651L4.9094 7.95966C4.54884 7.67166 4.49302 7.14772 4.78214 6.79104C5.07349 6.43547 5.60037 6.37898 5.95981 6.66587L10.9619 10.6669C11.5903 11.1609 12.4755 11.1609 13.1085 10.6624L18.0603 6.66809C18.4197 6.37676 18.9466 6.43215 19.2391 6.78883Z" fill="white"/>
</svg>
