<svg width="24" height="30" viewBox="0 0 24 30" fill="none" xmlns="http://www.w3.org/2000/svg">
<path fill-rule="evenodd" clip-rule="evenodd" d="M16.4813 0C21.259 0 24 2.36493 24 6.48489V26.9593C24 27.8185 23.5577 28.5918 22.814 29.0242C22.0731 29.4581 21.1801 29.4665 20.4308 29.044L12.0359 24.3014L3.56359 29.0538C3.19737 29.2595 2.79594 29.3637 2.3931 29.3637C1.97758 29.3637 1.56206 29.2524 1.18458 29.0299C0.442279 28.5975 0 27.8242 0 26.9664V6.22713C0 2.26915 2.74241 0 7.52439 0H16.4813ZM16.4813 2.1128H7.52439C3.93403 2.1128 2.1128 3.49598 2.1128 6.22713V26.9664C2.1128 27.0988 2.18886 27.1706 2.25224 27.2072C2.31563 27.2467 2.41563 27.2748 2.53113 27.21L11.5204 22.1675C11.8415 21.9886 12.2345 21.9872 12.5571 22.1689L21.4689 27.203C21.5858 27.2706 21.6858 27.2396 21.7492 27.2016C21.8125 27.1636 21.8872 27.0917 21.8872 26.9593L21.8867 6.32438C21.876 5.11209 21.6415 2.1128 16.4813 2.1128ZM17.0993 9.47732C17.6824 9.47732 18.1557 9.95058 18.1557 10.5337C18.1557 11.1168 17.6824 11.5901 17.0993 11.5901H6.79167C6.20853 11.5901 5.73527 11.1168 5.73527 10.5337C5.73527 9.95058 6.20853 9.47732 6.79167 9.47732H17.0993Z" fill="white"/>
</svg>
