<svg width="24" height="24" viewBox="0 0 24 24" fill="none" xmlns="http://www.w3.org/2000/svg">
<path fill-rule="evenodd" clip-rule="evenodd" d="M10.8373 14.5452L15.3384 21.8477C15.5353 22.1677 15.843 22.164 15.9674 22.1468C16.0917 22.1296 16.3908 22.0532 16.4991 21.6902L22.1276 2.68014C22.2261 2.34413 22.0451 2.1152 21.9639 2.03396C21.8851 1.95273 21.6599 1.77918 21.3337 1.8715L2.31018 7.44219C1.94955 7.54804 1.87078 7.85082 1.85355 7.97513C1.83632 8.1019 1.83139 8.41576 2.15017 8.61639L9.53632 13.2357L16.0621 6.64092C16.4203 6.27906 17.0049 6.27537 17.368 6.63354C17.7311 6.99171 17.7336 7.57758 17.3754 7.93944L10.8373 14.5452ZM15.8714 24.0004C15.0147 24.0004 14.2294 23.5647 13.7667 22.8164L8.99476 15.0733L1.17167 10.1808C0.328561 9.65274 -0.112072 8.71239 0.0245487 7.72404C0.159939 6.7357 0.838121 5.95043 1.79078 5.67104L20.8143 0.100346C21.6894 -0.155665 22.6273 0.0868066 23.2723 0.729295C23.9172 1.37794 24.1572 2.32567 23.8963 3.20447L18.2678 22.2133C17.9859 23.1696 17.1982 23.8453 16.2123 23.977C16.0966 23.9918 15.9846 24.0004 15.8714 24.0004Z" fill="white"/>
</svg>
