<svg width="24" height="31" viewBox="0 0 24 31" fill="none" xmlns="http://www.w3.org/2000/svg">
<path fill-rule="evenodd" clip-rule="evenodd" d="M24 24.5355C24 29.5294 17.1515 30.1067 12.0015 30.1067L11.633 30.1063C8.35182 30.0984 0 29.8912 0 24.5051C0 19.6131 6.57326 18.9593 11.6841 18.9347L12.37 18.9343C15.651 18.9422 24 19.1494 24 24.5355ZM12.0015 21.2067C5.54545 21.2067 2.27273 22.3158 2.27273 24.5051C2.27273 26.7142 5.54545 27.8339 12.0015 27.8339C18.4561 27.8339 21.7273 26.7248 21.7273 24.5355C21.7273 22.3264 18.4561 21.2067 12.0015 21.2067ZM12.0015 0C16.4379 0 20.0455 3.60909 20.0455 8.04545C20.0455 12.4818 16.4379 16.0894 12.0015 16.0894H11.953C7.52576 16.0758 3.93939 12.4652 3.9545 8.04091C3.9545 3.60909 7.56364 0 12.0015 0ZM12.0015 2.16364C8.75758 2.16364 6.11815 4.80152 6.11815 8.04545C6.10758 11.2788 8.72727 13.9152 11.9576 13.9273L12.0015 15.0091V13.9273C15.2439 13.9273 17.8818 11.2879 17.8818 8.04545C17.8818 4.80152 15.2439 2.16364 12.0015 2.16364Z" fill="white"/>
</svg>
